<svg xmlns="http://www.w3.org/2000/svg" width="16" height="16" fill="none" viewBox="0 0 16 16">
    <path fill="#C5C5C5" d="M8.576 1.024c.79.085 1.541.304 2.256.656.725.341 1.365.8 1.92 1.376.832.832 1.413 1.813 1.744 2.944.33 1.099.384 2.208.16 3.328-.213 1.152-.693 2.192-1.44 3.12-.683.843-1.515 1.488-2.496 1.936-.96.437-1.968.64-3.024.608-1.077-.032-2.096-.304-3.056-.816-.704-.384-1.328-.875-1.872-1.472-.533-.608-.955-1.285-1.264-2.032-.299-.747-.47-1.52-.512-2.32-.032-.81.064-1.6.288-2.368.235-.779.587-1.493 1.056-2.144.48-.65 1.05-1.2 1.712-1.648.672-.459 1.392-.784 2.16-.976.779-.203 1.563-.267 2.352-.192h.016zm.464 12.848c.672-.128 1.301-.368 1.888-.72.587-.363 1.093-.81 1.52-1.344.64-.79 1.05-1.68 1.232-2.672.181-.96.133-1.91-.144-2.848-.277-.97-.773-1.819-1.488-2.544-.65-.661-1.408-1.136-2.272-1.424-.864-.299-1.75-.39-2.656-.272-.896.117-1.728.437-2.496.96-.864.597-1.53 1.365-2 2.304-.459.939-.667 1.936-.624 2.992.053 1.045.357 2.016.912 2.912.555.885 1.29 1.579 2.208 2.08.597.33 1.232.544 1.904.64.672.096 1.344.075 2.016-.064zM7.376 6h1.248V4.992H7.376V6zm1.248.992v4H7.376v-4h1.248z"/>
</svg>
