<svg xmlns="http://www.w3.org/2000/svg" width="16" height="16" fill="none" viewBox="0 0 16 16">
    <path fill="#C5C5C5" d="M15.424 4.496l-.864-.368-1.472 1.456-4.016-.656c-.181-.523-.49-.96-.928-1.312-.437-.352-.933-.56-1.488-.624l-.496.512.048 3.808H.496l1.04 1.04h4.688l.048 3.344.512.528c.544-.053 1.03-.245 1.456-.576.437-.341.741-.773.912-1.296l4-.528 1.504 1.504.848-.352-.08-6.48zm-1.728 4.448l-.432-.144-4.528.608-.384.304c-.085.288-.224.55-.416.784-.181.235-.395.432-.64.592V8.352l-.064-4.176c.533.341.901.81 1.104 1.408l.4.32 4.528.736.432-.144.784-.784.048 4.032-.832-.784v-.016z"/>
</svg>
