<svg xmlns="http://www.w3.org/2000/svg" width="24" height="24" fill="none" viewBox="0 0 24 24">
    <path fill="#fff" fill-rule="evenodd" d="M22.247 10.242c-.198.644-.61 1.34-1.193 2.014-.63.728-1.433 1.413-2.388 2.037-.969.633-2.047 1.17-3.208 1.6-.896-.99-1.84-2.188-2.742-3.474l-.176-.254-.03-.323c-.135-1.55-.181-3.066-.133-4.401 1.683-.594 3.403-.908 4.98-.908 1.326 0 2.495.222 3.383.642.788.373 1.3.872 1.52 1.483.17.47.165 1.003-.013 1.585zm-5.52 6.948l-.046-.043c.38-.157.753-.326 1.117-.506.26.636.428 1.176.488 1.575.008.058.014.109.018.153-.264-.121-.764-.423-1.578-1.18zm-2.357 2.594c-.03-.044-.065-.098-.104-.162-.208-.352-.424-.872-.626-1.509.396-.089.794-.192 1.19-.31-.136 1.132-.332 1.708-.46 1.981zm-1.15-3.231c-.089-.391-.172-.801-.25-1.228.297.373.593.732.889 1.074-.213.056-.426.107-.638.154zM12.516 5.61c.138-1.107.326-1.656.451-1.916.039.054.083.124.133.211.2.353.405.855.599 1.465-.398.095-.797.205-1.193.328l.01-.088zm-2.304 11.287c-1.05 0-1.988-.136-2.785-.406L7 16.347l-2.846 1.027.046-2.2-1.44-1.665 2.854-1.03.237-.382c.65-1.052 1.705-2.07 3.062-2.958.583 1.126 1.317 2.35 2.14 3.568.153 1.46.377 2.867.654 4.101-.51.06-1.012.09-1.495.09zm.464-10.523c-.382.164-.757.34-1.12.527-.392-.948-.497-1.484-.518-1.762.272.124.792.439 1.638 1.235zm.162 3.094c-.215-.376-.415-.745-.599-1.102.193-.1.39-.197.589-.29-.006.451-.003.916.01 1.392zM23.778 8.11c-.72-1.998-3.121-3.191-6.421-3.191-.69 0-1.406.053-2.135.159-.284-.92-.59-1.636-.913-2.13-.41-.63-.877-.948-1.386-.948-.036 0-.072.002-.106.005-.52.045-.94.397-1.246 1.045-.196.415-.351.958-.472 1.65-.945-.79-1.703-1.175-2.308-1.175-.274 0-.52.074-.729.221-.428.3-.615.814-.556 1.528.05.605.274 1.37.685 2.343l.022.052c-1.602 1.018-2.867 2.217-3.676 3.483L0 12.789l2.572 2.971-.082 3.93 4.528-1.634c.938.302 2.012.455 3.193.455.616 0 1.256-.043 1.906-.127l.014.046c.3.975.61 1.69.947 2.183.393.577.843.869 1.339.869.035 0 .07-.002.104-.005.52-.045.942-.406 1.252-1.072.188-.404.342-.942.46-1.603.946.791 1.705 1.178 2.311 1.178.275 0 .521-.075.732-.222.44-.309.624-.852.546-1.616-.061-.59-.284-1.346-.665-2.25 1.704-1.044 3.046-2.289 3.892-3.612.934-1.462 1.186-2.904.73-4.17z" clip-rule="evenodd"/>
</svg>
