<svg xmlns="http://www.w3.org/2000/svg" width="16" height="16" fill="none" viewBox="0 0 16 16">
    <path fill="#333" d="M14.496 2h-1.488V.992H12V2H4V.992h-.992V2H1.504l-.496.496v12l.496.496h12.992l.512-.496v-12L14.496 2zM14 14H2V4.992h12V14zm0-10H2V2.992h12V4zM4 8h-.992v.992H4V8zm-.992 2H4v.992h-.992V10zM4 12h-.992v.992H4V12zm2-4h1.008v.992H6V8zm1.008 2H6v.992h1.008V10zM6 12h1.008v.992H6V12zm1.008-6H6v.992h1.008V6zm2 2H10v.992h-.992V8zM10 10h-.992v.992H10V10zm-.992 2H10v.992h-.992V12zM10 6h-.992v.992H10V6zm2 2h1.008v.992H12V8zm1.008 2H12v.992h1.008V10zM12 6h1.008v.992H12V6z"/>
</svg>
