<svg xmlns="http://www.w3.org/2000/svg" width="16" height="16" fill="none" viewBox="0 0 16 16">
    <path fill="#333" d="M10.16 0C9.083 0 8.085.293 7.168.88c-.907.587-1.584 1.376-2.032 2.368-.437.981-.576 2.01-.416 3.088.17 1.067.613 2.005 1.328 2.816L.672 15.248l.736.672 5.376-6.08c.619.49 1.307.827 2.064 1.008.768.181 1.536.203 2.304.064.779-.139 1.493-.432 2.144-.88.65-.448 1.179-1.008 1.584-1.68.405-.672.656-1.397.752-2.176.096-.779.027-1.547-.208-2.304-.235-.757-.613-1.43-1.136-2.016-.523-.587-1.141-1.04-1.856-1.36C11.717.166 10.96 0 10.16 0zm0 10c-.81 0-1.568-.203-2.272-.608-.672-.405-1.205-.944-1.6-1.616-.416-.704-.624-1.461-.624-2.272 0-.821.208-1.579.624-2.272.395-.683.928-1.221 1.6-1.616C8.592 1.2 9.349.992 10.16.992c.821 0 1.579.208 2.272.624.683.395 1.221.933 1.616 1.616.416.693.624 1.45.624 2.272 0 .81-.208 1.568-.624 2.272-.395.672-.933 1.21-1.616 1.616-.693.405-1.45.608-2.272.608z"/>
</svg>
