<svg width="16" height="16" viewBox="0 0 16 16" fill="none" xmlns="http://www.w3.org/2000/svg">
<path d="M12.7143 8C12.7143 9.04762 12.381 10 11.7143 10.8571C11.0476 11.619 10.1905 12.1429 9.14286 12.4286C8.09524 12.619 7.09524 12.4762 6.14286 12C5.28571 11.5238 4.61905 10.8095 4.14286 9.85714L2.71429 10.4286C3.09524 11.2857 3.61905 12 4.28571 12.5714C5.04762 13.1429 5.85714 13.5714 6.71429 13.8571C7.66667 14.0476 8.57143 14.0476 9.42857 13.8571C10.381 13.6667 11.1905 13.2857 11.8571 12.7143C12.619 12.1429 13.1905 11.4762 13.5714 10.7143C14.0476 9.85714 14.2857 8.95238 14.2857 8C14.2857 6.7619 13.9048 5.61905 13.1429 4.57143C12.381 3.52381 11.381 2.80952 10.1429 2.42857C9 1.95238 7.80952 1.90476 6.57143 2.28571C5.33333 2.66667 4.28571 3.33333 3.42857 4.28571L3.42857 2.42857L2 2.42857L2 6.42857L2.71429 7.28571L6.28571 7.28571L6.28571 5.71428L4.28571 5.71428C4.85714 4.85714 5.61905 4.23809 6.57143 3.85714C7.52381 3.47619 8.47619 3.42857 9.42857 3.71428C10.381 3.90476 11.1429 4.42857 11.7143 5.28571C12.381 6.04762 12.7143 6.95238 12.7143 8Z" fill="#554D56"/>
</svg>
