<svg xmlns="http://www.w3.org/2000/svg" width="16" height="16" fill="none" viewBox="0 0 16 16">
    <path fill="#333" d="M9.88 2l-.91.36V4.5L5.55 6.97c-.517-.246-1.091-.343-1.66-.28-.564.063-1.097.285-1.54.64v.73l2.84 2.76L1 15h1.52l3.44-3.44 2.49 2.43h.76c.36-.423.586-.944.65-1.495.064-.552-.037-1.11-.29-1.605l2.55-3.32h2.2l.37-.88L9.88 2zm2 4.53l-.43.21-2.87 3.75-.06.51c.288.55.37 1.185.23 1.79l-2-2-.76-.74-2.35-2.29c.622-.13 1.27-.05 1.84.23l.53-.06 3.86-2.79.21-.41V3.58l3 2.92-1.2.03z"/>
</svg>
